# xmcd CD database file
#
# Track frame offsets:
#	150
#	15194
#	35907
#	55030
#	73558
#	90522
#	109452
#	127497
#	132652
#	150802
#	169272
#	188406
#	209652
#	227830
#	249072
#
# Disc length: 3560 seconds
#
# Revision: 1
# Processed by: cddbd v1.5.2PL0 Copyright (c) Steve Scherf et al.
# Submitted via: CDex 1.70beta2
#
DISCID=ca0de60f
DTITLE=Leyona - SunRoad
DYEAR=2003
DGENRE=Pop
TTITLE0=Free wave
TTITLE1=NO (Soul Men)
TTITLE2=Love
TTITLE3=ひかりのうた
TTITLE4=Fatou Yo
TTITLE5=waterhole (joint 2)
TTITLE6=JOY TO THE WORLD
TTITLE7=Centerlude
TTITLE8=長い夜
TTITLE9=Baby why
TTITLE10=Mellow
TTITLE11=midnight guitar (Happy)
TTITLE12=部屋
TTITLE13=G+Leyona
TTITLE14=500マイル
EXTD=YEAR: 2003
EXTT0=
EXTT1=
EXTT2=
EXTT3=
EXTT4=
EXTT5=
EXTT6=
EXTT7=
EXTT8=
EXTT9=
EXTT10=
EXTT11=
EXTT12=
EXTT13=
EXTT14=
PLAYORDER=
